<svg version="1.1" xmlns="http://www.w3.org/2000/svg" viewBox="0 0 120.40394347271194 105.37149780751838" width="120.40394347271194" height="105.37149780751838"><!-- svg-source:excalidraw --><metadata></metadata><defs><style class="style-fonts">
      </style></defs><g transform="translate(16.098877955592798 94.5984006018798) rotate(0 44.103093780763174 -41.91265169812061)" stroke="none"><path fill="#ffd43b" d="M 0,-4.41 Q 0,-4.41 4.68,-4.17 9.36,-3.94 14.10,-3.76 18.83,-3.58 22.80,-3.53 26.77,-3.47 29.78,-3.59 32.78,-3.72 36.31,-3.74 39.83,-3.76 43.08,-3.82 46.32,-3.88 48.79,-4.02 51.25,-4.16 53.44,-4.30 55.62,-4.43 58.54,-4.67 61.46,-4.91 63.98,-5.16 66.49,-5.42 69.75,-6.17 73.01,-6.92 76.30,-7.70 79.58,-8.48 82.87,-9.20 86.16,-9.91 88.78,-10.50 91.39,-11.08 89.71,-8.99 88.02,-6.89 87.83,-9.28 87.64,-11.67 87.42,-15.11 87.21,-18.55 87.01,-20.96 86.82,-23.36 86.62,-26.18 86.41,-28.99 86.12,-32.05 85.83,-35.10 85.51,-38.53 85.18,-41.96 84.75,-46.69 84.32,-51.43 83.79,-54.20 83.25,-56.97 82.73,-59.24 82.21,-61.52 81.22,-65.19 80.23,-68.85 79.44,-71.05 78.64,-73.25 78.03,-70.81 77.42,-68.36 76.21,-66.42 75.01,-64.48 73.85,-62.45 72.69,-60.42 71.49,-58.26 70.29,-56.10 69.40,-54.06 68.52,-52.01 68.45,-49.79 68.38,-47.57 68.39,-47.42 68.39,-47.26 68.27,-46.41 68.16,-45.55 67.84,-44.74 67.52,-43.94 67.02,-43.23 66.52,-42.53 65.86,-41.96 65.20,-41.40 64.43,-41.01 63.66,-40.62 62.82,-40.42 61.97,-40.23 61.11,-40.24 60.24,-40.25 59.40,-40.47 58.57,-40.69 57.81,-41.10 57.05,-41.52 56.41,-42.10 55.77,-42.68 55.29,-43.40 54.80,-44.12 54.51,-44.94 54.21,-45.75 54.12,-46.61 54.03,-47.47 52.42,-49.38 50.81,-51.29 49.31,-54.25 47.82,-57.21 46.55,-59.64 45.29,-62.08 43.74,-65.16 42.18,-68.24 41.01,-70.46 39.84,-72.68 38.95,-74.68 38.05,-76.68 37.27,-78.76 36.48,-80.83 38.48,-79.31 40.47,-77.79 44.00,-78.63 47.53,-79.48 45.79,-77.45 44.05,-75.42 41.81,-72.81 39.58,-70.20 38.10,-68.62 36.61,-67.04 33.90,-63.83 31.19,-60.62 29.30,-58.02 27.42,-55.42 25.88,-53.03 24.35,-50.63 23.24,-48.23 22.13,-45.84 21.25,-43.70 20.37,-41.56 20.30,-41.36 20.23,-41.17 19.92,-40.36 19.62,-39.55 19.13,-38.84 18.63,-38.12 17.99,-37.55 17.34,-36.98 16.57,-36.57 15.81,-36.17 14.97,-35.96 14.13,-35.76 13.26,-35.76 12.40,-35.76 11.56,-35.96 10.72,-36.17 9.95,-36.57 9.18,-36.97 8.54,-37.55 7.89,-38.12 7.40,-38.83 6.90,-39.55 6.60,-40.35 6.29,-41.16 6.19,-42.02 6.08,-42.88 6.18,-43.74 6.29,-44.60 6.62,-42.11 6.94,-39.62 5.76,-41.74 4.58,-43.87 3.18,-46.00 1.79,-48.13 0.04,-50.90 -1.69,-53.68 -3.09,-55.74 -4.48,-57.80 -6.05,-60.29 -7.62,-62.78 -9.02,-64.82 -10.43,-66.86 -11.41,-68.53 -12.39,-70.20 -12.71,-71.01 -13.02,-71.82 -13.14,-72.68 -13.25,-73.54 -13.15,-74.41 -13.06,-75.27 -12.76,-76.09 -12.46,-76.90 -11.97,-77.63 -11.48,-78.35 -10.84,-78.93 -10.19,-79.51 -9.43,-79.92 -8.66,-80.33 -7.82,-80.55 -6.98,-80.77 -6.11,-80.77 -5.24,-80.78 -4.39,-80.58 -3.55,-80.38 -2.77,-79.99 -2.00,-79.59 -1.34,-79.02 -0.69,-78.45 -0.18,-77.74 0.31,-77.03 0.69,-74.73 1.07,-72.43 1.12,-69.35 1.17,-66.26 1.11,-62.95 1.04,-59.63 0.91,-55.36 0.77,-51.10 0.76,-48.68 0.74,-46.26 0.77,-43.67 0.79,-41.08 0.85,-38.47 0.91,-35.86 0.99,-32.95 1.07,-30.03 1.28,-27.79 1.48,-25.55 1.73,-23.40 1.99,-21.24 2.51,-17.31 3.04,-13.38 3.48,-10.38 3.91,-7.38 4.49,-5.12 5.07,-2.87 5.67,-2.13 6.27,-1.40 6.35,-0.63 6.43,0.13 6.32,0.90 6.21,1.67 5.91,2.39 5.62,3.11 5.17,3.74 4.72,4.36 4.12,4.86 3.53,5.37 2.84,5.71 2.14,6.06 1.39,6.23 0.63,6.40 -0.13,6.38 -0.91,6.36 -1.66,6.16 -2.41,5.96 -3.08,5.58 -3.76,5.21 -4.33,4.68 -4.90,4.15 -5.33,3.51 -5.75,2.86 -6.01,2.13 -6.27,1.40 -4.74,-2.08 -3.21,-5.57 -2.24,-5.93 -1.26,-6.30 -0.22,-6.34 0.81,-6.38 1.80,-6.08 2.80,-5.78 3.65,-5.18 4.50,-4.58 5.12,-3.74 5.73,-2.90 6.05,-1.91 6.36,-0.92 6.34,0.11 6.32,1.15 5.97,2.13 5.62,3.11 4.98,3.93 4.33,4.75 3.46,5.31 2.59,5.88 1.58,6.14 0.57,6.40 -0.46,6.33 -1.49,6.25 -2.45,5.85 -3.41,5.44 -4.19,4.76 -4.97,4.07 -5.49,3.17 -6.01,2.27 -6.22,1.24 -6.42,0.22 -6.29,-0.80 -6.16,-1.83 -5.71,-2.77 -5.25,-3.70 -4.52,-4.44 -3.79,-5.19 -2.86,-5.66 -1.94,-6.13 -0.91,-6.28 0.11,-6.43 1.14,-6.24 2.16,-6.05 3.07,-5.55 3.98,-5.04 4.68,-4.27 5.38,-3.51 5.80,-2.55 6.22,-1.60 6.32,-0.56 6.41,0.46 6.17,1.47 5.92,2.49 5.37,3.37 4.82,4.25 5.55,1.42 6.27,-1.40 6.35,-0.63 6.43,0.13 6.32,0.90 6.21,1.67 5.91,2.39 5.62,3.11 5.17,3.73 4.72,4.36 4.12,4.86 3.53,5.37 2.84,5.71 2.15,6.06 1.39,6.23 0.63,6.40 -0.13,6.38 -0.91,6.36 -1.66,6.16 -2.41,5.96 -3.08,5.58 -3.76,5.21 -4.33,4.68 -4.90,4.15 -5.33,3.51 -5.75,2.86 -6.01,2.13 -6.27,1.40 -6.92,0.07 -7.57,-1.24 -7.92,-3.45 -8.27,-5.66 -8.59,-8.83 -8.90,-12.00 -9.37,-15.90 -9.83,-19.81 -10.11,-22.09 -10.40,-24.37 -10.66,-26.77 -10.91,-29.17 -11.26,-32.16 -11.60,-35.14 -11.84,-37.79 -12.09,-40.43 -12.33,-43.10 -12.57,-45.78 -12.77,-48.44 -12.97,-51.10 -13.05,-53.35 -13.12,-55.61 -13.22,-59.44 -13.32,-63.26 -12.86,-66.73 -12.39,-70.20 -12.71,-71.01 -13.02,-71.82 -13.14,-72.68 -13.25,-73.54 -13.15,-74.41 -13.06,-75.27 -12.76,-76.09 -12.46,-76.90 -11.97,-77.62 -11.48,-78.34 -10.84,-78.93 -10.19,-79.51 -9.43,-79.92 -8.66,-80.33 -7.82,-80.55 -6.98,-80.77 -6.11,-80.77 -5.24,-80.78 -4.39,-80.58 -3.55,-80.38 -2.77,-79.99 -2.00,-79.59 -1.34,-79.02 -0.69,-78.45 -0.18,-77.74 0.31,-77.03 0.95,-75.77 1.59,-74.52 3.04,-72.30 4.48,-70.08 5.75,-68.08 7.02,-66.08 8.70,-63.64 10.38,-61.21 12.03,-58.74 13.69,-56.27 15.27,-53.95 16.85,-51.63 18.20,-48.91 19.55,-46.18 19.89,-43.68 20.23,-41.17 19.92,-40.36 19.62,-39.55 19.13,-38.84 18.64,-38.12 17.99,-37.55 17.34,-36.98 16.57,-36.57 15.81,-36.17 14.97,-35.96 14.13,-35.76 13.26,-35.76 12.40,-35.76 11.56,-35.96 10.72,-36.17 9.95,-36.57 9.18,-36.97 8.54,-37.55 7.89,-38.12 7.40,-38.83 6.90,-39.55 6.60,-40.35 6.29,-41.16 6.19,-42.02 6.08,-42.88 6.18,-43.74 6.29,-44.60 6.75,-45.83 7.21,-47.06 8.20,-49.15 9.19,-51.23 10.21,-53.18 11.23,-55.13 12.55,-57.27 13.87,-59.41 15.21,-61.29 16.55,-63.16 18.51,-65.88 20.46,-68.59 22.06,-70.93 23.65,-73.26 26.21,-76.37 28.76,-79.48 30.79,-82.07 32.82,-84.66 34.98,-87.06 37.14,-89.46 40.83,-90.40 44.51,-91.33 47.00,-89.09 49.48,-86.84 50.32,-84.35 51.15,-81.87 52.22,-79.48 53.29,-77.09 54.82,-74.26 56.35,-71.43 57.81,-68.77 59.27,-66.11 60.60,-63.57 61.92,-61.04 63.28,-58.69 64.63,-56.35 65.95,-53.97 67.27,-51.60 67.83,-49.43 68.39,-47.27 68.27,-46.41 68.16,-45.55 67.84,-44.74 67.52,-43.94 67.02,-43.23 66.52,-42.53 65.86,-41.96 65.21,-41.40 64.43,-41.01 63.66,-40.62 62.82,-40.42 61.97,-40.23 61.11,-40.24 60.24,-40.25 59.41,-40.47 58.57,-40.69 57.81,-41.10 57.05,-41.52 56.41,-42.10 55.77,-42.68 55.29,-43.40 54.80,-44.12 54.51,-44.94 54.21,-45.75 54.12,-46.61 54.03,-47.47 54.08,-48.36 54.13,-49.24 54.38,-51.64 54.63,-54.03 55.38,-56.16 56.12,-58.29 57.34,-60.64 58.55,-62.99 59.73,-64.99 60.91,-67.00 62.30,-69.32 63.69,-71.63 65.25,-73.96 66.81,-76.30 68.45,-78.17 70.08,-80.04 72.37,-81.67 74.66,-83.30 77.12,-84.30 79.59,-85.29 82.27,-85.00 84.96,-84.70 86.83,-81.97 88.70,-79.23 89.28,-76.74 89.87,-74.25 90.52,-70.94 91.18,-67.63 91.54,-65.54 91.90,-63.44 92.29,-61.08 92.69,-58.73 93.21,-55.87 93.72,-53.01 94.88,-48.30 96.03,-43.60 96.74,-40.20 97.45,-36.80 98.08,-33.61 98.70,-30.42 99.15,-27.61 99.59,-24.79 99.95,-22.29 100.31,-19.80 100.55,-17.56 100.80,-15.32 100.86,-12.25 100.93,-9.17 100.73,-6.42 100.53,-3.66 98.51,-1.48 96.49,0.69 93.62,1.22 90.76,1.76 88.14,2.17 85.52,2.58 82.03,3.24 78.53,3.90 75.41,4.42 72.30,4.95 69.40,5.18 66.50,5.42 63.98,5.16 61.46,4.91 58.54,4.67 55.62,4.43 53.44,4.30 51.25,4.16 48.79,4.02 46.32,3.88 43.08,3.82 39.83,3.76 36.31,3.74 32.78,3.72 29.78,3.59 26.77,3.47 22.80,3.53 18.83,3.58 14.10,3.76 9.36,3.94 4.68,4.17 0,4.41 -0.52,4.34 -1.05,4.28 -1.55,4.09 -2.05,3.90 -2.48,3.60 -2.92,3.30 -3.27,2.90 -3.63,2.50 -3.87,2.03 -4.12,1.56 -4.25,1.04 -4.38,0.53 -4.38,-0.00 -4.38,-0.53 -4.25,-1.04 -4.12,-1.56 -3.87,-2.03 -3.63,-2.50 -3.27,-2.90 -2.92,-3.30 -2.48,-3.60 -2.05,-3.90 -1.55,-4.09 -1.05,-4.28 -0.52,-4.34 0.00,-4.41 0.00,-4.41 L 0,-4.41 Z"></path></g></svg>
